<?xml version="1.0" encoding="utf-8"?>
<!-- Generator: Adobe Illustrator 21.0.0, SVG Export Plug-In . SVG Version: 6.00 Build 0)  -->
<svg version="1.1" id="Shape_163" xmlns="http://www.w3.org/2000/svg" xmlns:xlink="http://www.w3.org/1999/xlink" x="0px" y="0px"
	 viewBox="0 0 16 19.4" style="enable-background:new 0 0 16 19.4;" xml:space="preserve">
<style type="text/css">
	.st0{fill:#FFFDFD;}
</style>
<g>
	<path class="st0" d="M11.7,2.8h-1.1c-0.3,0-0.5,0.2-0.5,0.5s0.2,0.5,0.5,0.5h0.1v0.7c0,1.3-1,2.3-2.3,2.3H7.5c-1.3,0-2.3-1-2.3-2.3
		V3.8h0.1c0.3,0,0.5-0.2,0.5-0.5S5.5,2.8,5.3,2.8H4.2C3.9,2.8,3.7,3,3.7,3.3s0.2,0.5,0.5,0.5h0.1v0.7c0,1.8,1.4,3.2,3.2,3.2h0.9
		c1.8,0,3.2-1.4,3.2-3.2V3.8h0.1c0.3,0,0.5-0.2,0.5-0.5S12,2.8,11.7,2.8z M16,18.9L15.4,0.4c0-0.2-0.2-0.4-0.5-0.4H1
		C0.8,0,0.6,0.2,0.6,0.4L0,19c0,0.1,0,0.2,0.1,0.3c0.1,0.1,0.2,0.1,0.3,0.1h15.1c0,0,0,0,0,0c0.3,0,0.5-0.2,0.5-0.5
		C16,18.9,16,18.9,16,18.9z M0.9,18.5L1.5,0.9h13l0.6,17.6H0.9z"/>
</g>
</svg>
