<?xml version="1.0" encoding="utf-8"?>
<!-- Generator: Adobe Illustrator 21.0.0, SVG Export Plug-In . SVG Version: 6.00 Build 0)  -->
<svg version="1.1" id="Слой_1" xmlns="http://www.w3.org/2000/svg" xmlns:xlink="http://www.w3.org/1999/xlink" x="0px" y="0px"
	 viewBox="0 0 198 57.4" style="enable-background:new 0 0 198 57.4;" xml:space="preserve">
<style type="text/css">
	.st0{fill:#FFFFFF;}
	.st1{fill:#A39178;}
	.st2{fill:#231F20;}
</style>
<path class="st0" d="M42.3,11.4c-0.6-0.7-1.1-1.4-1.3-2.2c-0.2-0.7-0.4-1.5-0.4-2.4c0-2.1,0.7-3.7,2-5C44,0.6,46.2,0,49.2,0
	c1.2,0,2.3,0.1,3.5,0.4c1.1,0.3,2,0.6,2.7,1c0.2,0.2,0.5,0.3,0.6,0.4c0.2,0.2,0.2,0.4,0.2,0.5v2.4c0,0.6-0.3,0.8-0.9,0.5
	c-0.7-0.2-1.6-0.5-2.8-0.7s-2.3-0.4-3.3-0.4c-0.5,0-0.9,0-1.3,0.1c-2.7,0.2-5.6,1.6-5.8,4.6c-0.1,1.6,0.8,3,2,4
	C43.4,12.5,42.7,12,42.3,11.4 M75,2c-2-1.3-4.4-1.9-7.6-1.9c-2.7,0-5.1,0.2-7,0.5c-0.4,0.1-0.7,0.2-0.8,0.3
	c-0.2,0.2-0.3,0.4-0.3,0.7v24.7c0,0.2,0.1,0.4,0.2,0.5c0.2,0.1,0.3,0.2,0.5,0.2h3.6c0.2,0,0.4-0.1,0.5-0.2c0.1-0.1,0.2-0.3,0.2-0.5
	v-8.4c0-0.2,0-0.4,0-0.5v-0.1v-13c1-0.1,2-0.2,3.2-0.2c1.9,0,3.2,0.3,4.1,1s1.3,1.7,1.3,3.2v0.3c0,1-0.2,1.8-0.5,2.4
	c-0.4,0.6-1,1.1-1.7,1.4c-0.3,0.1-0.7,0.2-1.1,0.3c-1,0.3-3.3,1.2-3.9,3.9c0,0.1-0.1,0.2-0.1,0.2c0.2,0,0.4,0,0.7,0.1
	C67,17,67.4,17,67.6,17c3.1,0,5.5-0.7,7.5-2c1.9-1.3,2.8-3.5,2.8-6.4V8.3C77.8,5.4,76.8,3.3,75,2z M97.1,15.5c0.6,0.9,0.9,2,0.9,3.4
	v0.6c0,1.8-0.4,3.3-1.3,4.5s-2.1,2-3.7,2.5s-3.6,0.8-5.9,0.8c-2.8,0-4.9-0.1-6.2-0.4c-0.6-0.1-1.1-0.3-1.3-0.6
	c-0.2-0.3-0.4-0.7-0.4-1.4v-20h5v6.6h4.6c1.6,0,2.7-0.3,3.3-1c0.7-0.6,1-1.4,1-2.5V7.5c0-0.8-0.2-1.5-0.6-2s-1-0.8-1.9-1.1
	c-0.9-0.2-2-0.4-3.5-0.4l0,0l0,0C87,4,87,4,86.9,4c-0.4,0-1.2,0-2.3,0.1c-1.1-0.2-2.3-0.7-3.4-1.9c-0.4-0.5-0.7-1.1-0.8-1.7
	c0.1-0.1,0.3-0.1,0.5-0.1c0.6-0.1,1.4-0.2,2.5-0.2c1.1-0.1,2.2-0.1,3.5-0.1c1.7,0,3.3,0.1,4.6,0.4c1.3,0.2,2.5,0.7,3.4,1.2
	c1,0.5,1.7,1.3,2.2,2.3s0.8,2.1,0.8,3.4v0.7c0,0.8-0.1,1.6-0.4,2.2c-0.2,0.7-0.6,1.3-1.1,1.9c-0.5,0.5-1.1,1-1.8,1.3
	C95.6,13.9,96.5,14.6,97.1,15.5z M93.2,19c0-1.1-0.4-2-1-2.7c-0.7-0.7-1.8-1.1-3.4-1.1h-4.6v7.9c0.3,0,0.8,0,1.5,0.1
	c0.7,0,1.2,0.1,1.4,0.1c2.2,0,3.8-0.3,4.7-0.9c0.9-0.6,1.3-1.5,1.3-2.8L93.2,19L93.2,19z M55.8,14.8c-0.7-0.7-1.7-1.5-3-2.2
	l-4.3-2.5c-1.1-0.7-1.9-1.3-2.3-1.6c-0.4-0.4-0.6-0.9-0.6-1.4c0-1,0.4-1.6,1.1-2c-1.1,0.5-2.6,1.5-3.1,3.6c-0.7,2.7,1.3,4.8,3,6.1
	l2.5,1.5l0.4,0.2c1.2,0.7,2,1.3,2.3,1.7c0.4,0.5,0.6,1.1,0.6,1.7c0,1.1-0.3,1.9-1,2.5c-0.7,0.5-1.7,0.8-3.3,0.8
	c-1.9,0-4-0.4-6.3-1.1c-0.6-0.2-0.9,0-0.9,0.5V25c0,0.2,0.1,0.4,0.2,0.5c0.1,0.1,0.3,0.2,0.7,0.5c0.5,0.3,1.3,0.6,2.5,0.9
	c1.2,0.4,2.6,0.5,4,0.5c2.2,0,4-0.4,5.4-1.1c1.4-0.7,2.3-1.6,3-2.8s0.9-2.3,0.9-3.7c0-1-0.1-1.9-0.4-2.7
	C57,16.3,56.5,15.5,55.8,14.8z M47.9,4.5c0.1,0,0.1,0,0.2,0C48,4.5,48,4.5,47.9,4.5z M157.4,26.3l-7.9-12.6L157,1
	c0.1-0.1,0.1-0.2,0.1-0.2c0-0.1-0.1-0.2-0.2-0.4c-0.1-0.1-0.2-0.1-0.4-0.1h-3.9c-0.4,0-0.7,0.2-0.9,0.7l-4.8,8.4L141.7,1
	c-0.3-0.5-0.7-0.7-1-0.7h-4.2c-0.2,0-0.3,0.1-0.4,0.1c-0.1,0.1-0.2,0.2-0.2,0.3s0,0.1,0.1,0.2l7.8,12.5l-7.7,12.7
	c-0.1,0.1-0.1,0.2-0.1,0.2c0,0.3,0.2,0.5,0.5,0.5h3.9c0.4,0,0.7-0.2,1-0.7l4.9-8.4l5.2,8.4c0.3,0.5,0.7,0.7,1,0.7h4.2
	C157.1,26.8,157.3,26.7,157.4,26.3C157.4,26.4,157.4,26.3,157.4,26.3z M134.2,0.4h-3.6c-0.2,0-0.4,0.1-0.5,0.2
	c-0.1,0.1-0.2,0.3-0.2,0.5v16c0,1.4-0.1,2.6-0.4,3.4s-0.8,1.5-1.5,1.9s-1.7,0.7-3,0.7s-2.3-0.2-3-0.7c-0.5-0.4-1-0.8-1.3-1.4
	c0.9,2.3,3.1,5.6,8.5,4.6c2.6-0.4,4.3-2.2,4.9-3.8c0.5-1.3,0.7-2.9,0.7-4.8V1c0-0.2-0.1-0.4-0.2-0.5C134.6,0.4,134.4,0.4,134.2,0.4z
	 M120.2,17.2V1c0-0.2-0.1-0.4-0.2-0.5s-0.3-0.2-0.5-0.2h-3.6c-0.2,0-0.4,0.1-0.5,0.2c-0.1,0.1-0.2,0.3-0.2,0.5v16.1
	c0,1.9,0.2,3.4,0.7,4.8c0.5,1.3,1.1,2.3,2,3.1c0.8,0.8,1.9,1.3,3.1,1.7s2.5,0.5,4,0.5c1.1,0,2.2-0.1,3.3-0.4
	C121.4,27.4,120.2,21.1,120.2,17.2z M114.3,23h-6.6c-1,0-1.7-0.2-2.2-0.7c-0.4-0.4-0.6-1.3-0.6-2.4V1.1c0-0.2-0.1-0.4-0.2-0.5
	c-0.2-0.2-0.3-0.2-0.5-0.2h-3.6c-0.2,0-0.4,0.1-0.5,0.2c-0.2,0.2-0.2,0.3-0.2,0.5V20c0,1.9,0.4,3.4,1.1,4.5s1.6,1.8,2.8,2.2
	s2.7,0.6,4.3,0.6c0.8,0,1.9-0.1,3.3-0.2c1.3-0.1,2.3-0.2,2.8-0.4c0.3-0.1,0.5-0.1,0.5-0.2c0.1-0.1,0.2-0.3,0.2-0.5v-2.3
	c0-0.2-0.1-0.4-0.2-0.5C114.7,23.1,114.5,23,114.3,23z"/>
<rect y="37.2" class="st1" width="198" height="20.2"/>
<g>
	<path class="st2" d="M14.9,49.2c-0.7,0-1.3-0.2-1.6-0.6s-0.6-0.9-0.6-1.7v-2.7H14v2.7c0,0.9,0.4,1.4,1.3,1.4H16v-4.1h1.3v7.7H16
		v-2.8c-0.1,0-0.3,0.1-0.5,0.1C15.2,49.2,15.1,49.2,14.9,49.2z"/>
	<path class="st2" d="M21.4,50l-0.5,1.9h-1.4l2-7.7h1.6l2,7.7h-1.4L23.2,50H21.4z M22.4,46L22.4,46l-0.8,3.1h1.5L22.4,46z"/>
	<path class="st2" d="M29.5,52c-0.4,0-0.8-0.1-1.1-0.2c-0.3-0.1-0.6-0.3-0.8-0.6s-0.4-0.7-0.5-1.2s-0.2-1.1-0.2-1.9
		c0-0.8,0.1-1.4,0.2-1.9s0.3-0.9,0.5-1.2s0.5-0.5,0.8-0.6s0.6-0.3,1-0.3s0.7,0,1,0.1s0.5,0.1,0.7,0.2V45h-1.3c-0.2,0-0.4,0-0.6,0.1
		s-0.4,0.3-0.5,0.5s-0.3,0.6-0.3,1c-0.1,0.4-0.1,0.9-0.1,1.5s0,1.1,0.1,1.5s0.2,0.7,0.3,1c0.1,0.2,0.3,0.4,0.5,0.5s0.4,0.1,0.7,0.1
		h1.3v0.6c-0.2,0.1-0.4,0.1-0.7,0.2S29.9,52,29.5,52z"/>
	<path class="st2" d="M35.6,44.1c0.4,0,0.7,0.1,1,0.2s0.6,0.4,0.8,0.7s0.4,0.7,0.5,1.2s0.2,1.1,0.2,1.9c0,0.7-0.1,1.4-0.2,1.9
		c-0.1,0.5-0.3,0.9-0.5,1.2c-0.2,0.3-0.5,0.5-0.8,0.7s-0.7,0.2-1,0.2c-0.4,0-0.7-0.1-1.1-0.2c-0.3-0.1-0.6-0.4-0.8-0.7
		c-0.2-0.3-0.4-0.7-0.5-1.2c-0.1-0.6-0.2-1.2-0.2-1.9s0.1-1.4,0.2-1.9s0.3-0.9,0.5-1.2s0.5-0.5,0.8-0.7
		C34.8,44.2,35.2,44.1,35.6,44.1z M35.6,51.3c0.2,0,0.3,0,0.4-0.1c0.1-0.1,0.3-0.3,0.4-0.5c0.1-0.2,0.2-0.6,0.3-1s0.1-0.9,0.1-1.6
		s0-1.2-0.1-1.6c-0.1-0.4-0.2-0.7-0.3-1c-0.1-0.2-0.2-0.4-0.4-0.5c-0.1-0.1-0.3-0.1-0.4-0.1c-0.2,0-0.3,0-0.4,0.1
		c-0.1,0.1-0.3,0.3-0.4,0.5c-0.1,0.2-0.2,0.6-0.3,1s-0.1,0.9-0.1,1.6s0,1.2,0.1,1.6s0.2,0.7,0.3,1c0.1,0.2,0.2,0.4,0.4,0.5
		C35.3,51.2,35.4,51.3,35.6,51.3z"/>
	<path class="st2" d="M44,47.8c0.4,0.2,0.8,0.4,1,0.7s0.4,0.8,0.4,1.3c0,0.7-0.2,1.3-0.6,1.6c-0.4,0.4-1.1,0.6-2.1,0.6
		c-0.4,0-0.8,0-1.1,0s-0.6-0.1-0.9-0.2v-7.5c0.3-0.1,0.6-0.1,0.9-0.2s0.6,0,1.1,0c0.8,0,1.4,0.2,1.8,0.5c0.4,0.4,0.6,0.9,0.6,1.5
		c0,0.3-0.1,0.6-0.3,0.9C44.6,47.4,44.3,47.6,44,47.8L44,47.8z M42.5,47.5c0.4,0,0.6-0.1,0.8-0.3s0.3-0.5,0.3-0.9s-0.1-0.7-0.3-0.9
		s-0.5-0.3-0.8-0.3H42v2.5L42.5,47.5L42.5,47.5z M42,48.3v2.9h0.6c0.5,0,0.8-0.1,1-0.3s0.3-0.6,0.3-1.1s-0.1-0.9-0.3-1.1
		c-0.2-0.2-0.6-0.3-1-0.3L42,48.3L42,48.3z"/>
	<path class="st2" d="M50.1,44.1c0.4,0,0.7,0.1,1,0.2s0.6,0.4,0.8,0.7s0.4,0.7,0.5,1.2s0.2,1.1,0.2,1.9c0,0.7-0.1,1.4-0.2,1.9
		c-0.1,0.5-0.3,0.9-0.5,1.2c-0.2,0.3-0.5,0.5-0.8,0.7s-0.7,0.2-1,0.2c-0.4,0-0.7-0.1-1.1-0.2c-0.3-0.1-0.6-0.4-0.8-0.7
		c-0.2-0.3-0.4-0.7-0.5-1.2s-0.2-1.1-0.2-1.9c0-0.7,0.1-1.4,0.2-1.9s0.3-0.9,0.5-1.2s0.5-0.5,0.8-0.7C49.3,44.2,49.7,44.1,50.1,44.1
		z M50.1,51.3c0.2,0,0.3,0,0.4-0.1c0.1-0.1,0.3-0.3,0.4-0.5c0.1-0.2,0.2-0.6,0.3-1s0.1-0.9,0.1-1.6s0-1.2-0.1-1.6
		c-0.1-0.4-0.2-0.7-0.3-1c-0.1-0.2-0.2-0.4-0.4-0.5c-0.1-0.1-0.3-0.1-0.4-0.1c-0.2,0-0.3,0-0.4,0.1c-0.1,0.1-0.3,0.3-0.4,0.5
		c-0.1,0.2-0.2,0.6-0.3,1s-0.1,0.9-0.1,1.6s0,1.2,0.1,1.6s0.2,0.7,0.3,1c0.1,0.2,0.2,0.4,0.4,0.5C49.8,51.2,49.9,51.3,50.1,51.3z"/>
	<path class="st2" d="M56.5,51.9h-1.3v-7.7h1.3v5.1h0.1l2-5.1H60v7.7h-1.3v-5.2h-0.1L56.5,51.9z M57.6,42.7c0.2,0,0.4-0.1,0.6-0.2
		c0.2-0.1,0.3-0.2,0.4-0.3l0.5,0.6c-0.2,0.3-0.4,0.5-0.7,0.6c-0.3,0.2-0.6,0.2-0.9,0.2s-0.7-0.1-0.9-0.2s-0.5-0.4-0.7-0.6l0.5-0.6
		c0.1,0.1,0.3,0.2,0.4,0.3C57.1,42.6,57.3,42.7,57.6,42.7z"/>
	<path class="st2" d="M68.2,51.9h-1.3v-7.7h1.3v5.1h0.1l2-5.1h1.4v7.7h-1.3v-5.2h-0.1L68.2,51.9z"/>
	<path class="st2" d="M83,44.1c0.4,0,0.7,0.1,1,0.2c0.3,0.1,0.6,0.4,0.8,0.7c0.2,0.3,0.4,0.7,0.5,1.2s0.2,1.1,0.2,1.9
		c0,0.7-0.1,1.4-0.2,1.9s-0.3,0.9-0.5,1.2c-0.2,0.3-0.5,0.5-0.8,0.7c-0.3,0.1-0.6,0.2-1,0.2s-0.7-0.1-1-0.2s-0.5-0.3-0.8-0.6
		c-0.2-0.3-0.4-0.6-0.5-1.1s-0.2-1-0.2-1.7h-0.7V52h-1.3v-7.7h1.3v3.4h0.7c0-0.6,0.1-1.2,0.2-1.6c0.1-0.4,0.3-0.8,0.5-1.1
		s0.5-0.5,0.8-0.6S82.6,44.1,83,44.1z M83,44.9c-0.1,0-0.3,0-0.4,0.1s-0.3,0.3-0.4,0.5s-0.2,0.6-0.3,1c-0.1,0.4-0.1,0.9-0.1,1.6
		s0,1.2,0.1,1.6s0.2,0.7,0.3,1c0.1,0.2,0.2,0.4,0.4,0.5c0.1,0.1,0.3,0.1,0.4,0.1s0.3,0,0.4-0.1s0.3-0.3,0.4-0.5s0.2-0.6,0.3-1
		c0.1-0.4,0.1-0.9,0.1-1.6s0-1.2-0.1-1.6c-0.1-0.4-0.2-0.7-0.3-1c-0.1-0.2-0.2-0.4-0.4-0.5C83.2,44.9,83.1,44.9,83,44.9z"/>
	<path class="st2" d="M91.3,47.8c0.4,0.2,0.8,0.4,1,0.7s0.4,0.8,0.4,1.3c0,0.7-0.2,1.3-0.6,1.6C91.7,51.8,91,52,90,52
		c-0.4,0-0.8,0-1.1,0s-0.6-0.1-0.9-0.2v-7.5c0.3-0.1,0.6-0.1,0.9-0.2s0.6,0,1.1,0c0.8,0,1.4,0.2,1.8,0.5c0.4,0.4,0.6,0.9,0.6,1.5
		c0,0.3-0.1,0.6-0.3,0.9C91.9,47.4,91.7,47.6,91.3,47.8L91.3,47.8z M89.8,47.5c0.4,0,0.6-0.1,0.8-0.3c0.2-0.2,0.3-0.5,0.3-0.9
		s-0.1-0.7-0.3-0.9c-0.2-0.2-0.5-0.3-0.8-0.3h-0.5v2.5L89.8,47.5L89.8,47.5z M89.3,48.3v2.9H90c0.5,0,0.8-0.1,1-0.3s0.3-0.6,0.3-1.1
		s-0.1-0.9-0.3-1.1c-0.2-0.2-0.6-0.3-1-0.3L89.3,48.3L89.3,48.3z"/>
	<path class="st2" d="M96.5,51.1h2.7V52h-4v-7.7h4v0.8h-2.7v2.4h2.4v0.9h-2.4V51.1z"/>
	<path class="st2" d="M101.7,52c-0.2,0-0.4,0-0.6-0.1c-0.1,0-0.1,0-0.2-0.1v-0.6c0.1,0,0.3,0,0.4-0.1s0.2-0.2,0.3-0.3
		c0.1-0.1,0.2-0.3,0.2-0.5c0.1-0.2,0.1-0.5,0.1-0.8l0.3-5.4h4.1v7.7H105v-6.7h-1.5l-0.2,4.5c0,0.4-0.1,0.8-0.2,1.1
		c-0.1,0.3-0.2,0.6-0.3,0.7c-0.1,0.2-0.3,0.3-0.5,0.4C102.1,52,101.9,52,101.7,52z"/>
	<path class="st2" d="M110.5,51.9h-1.3v-7.7h1.3v5.1h0.1l2-5.1h1.4v7.7h-1.3v-5.2h-0.1L110.5,51.9z"/>
	<path class="st2" d="M118.1,51.9h-1.3v-7.6c0.3-0.1,0.6-0.1,0.9-0.2s0.6,0,1.1,0s0.8,0.1,1.2,0.2c0.3,0.1,0.6,0.3,0.8,0.5
		s0.4,0.5,0.5,0.9c0.1,0.3,0.1,0.8,0.1,1.3s0,1-0.1,1.3c-0.1,0.4-0.2,0.7-0.4,0.9c-0.2,0.2-0.4,0.4-0.7,0.5c-0.3,0.1-0.6,0.2-1,0.2
		c0,0-0.1,0-0.2,0s-0.2,0-0.2,0s-0.2,0-0.3,0s-0.2,0-0.2,0v2H118.1z M118.7,48.9c0.2,0,0.4,0,0.5-0.1c0.2-0.1,0.3-0.2,0.4-0.3
		s0.2-0.4,0.2-0.6c0.1-0.3,0.1-0.6,0.1-1s0-0.7-0.1-0.9s-0.1-0.4-0.2-0.6s-0.2-0.3-0.4-0.3c-0.2-0.1-0.3-0.1-0.5-0.1h-0.6v3.9
		C118.1,48.9,118.7,48.9,118.7,48.9z"/>
	<path class="st2" d="M128.4,44.2v7.7h-1.3v-3.5h-2v3.5h-1.3v-7.7h1.3v3.4h2v-3.4C127.1,44.2,128.4,44.2,128.4,44.2z"/>
	<path class="st2" d="M133.5,47.2c0.7,0,1.3,0.2,1.6,0.6c0.4,0.4,0.6,1,0.6,1.9c0,0.8-0.2,1.4-0.6,1.8c-0.4,0.4-1,0.6-1.9,0.6
		c-0.4,0-0.8,0-1.1,0s-0.6-0.1-0.9-0.2v-7.6h1.3v3.1c0.1,0,0.1,0,0.2,0c0.1,0,0.2,0,0.3,0s0.2,0,0.2,0
		C133.4,47.2,133.5,47.2,133.5,47.2z M132.6,48.1v3.1h0.6c0.4,0,0.7-0.1,0.9-0.4s0.3-0.6,0.3-1.2c0-0.3,0-0.6-0.1-0.8
		s-0.1-0.4-0.2-0.5s-0.2-0.2-0.4-0.3s-0.3-0.1-0.5-0.1h-0.6V48.1z M137.8,44.2v7.7h-1.3v-7.7C136.5,44.2,137.8,44.2,137.8,44.2z"/>
	<path class="st2" d="M142,51.9h-1.3v-7.7h1.3v5.1h0.1l2-5.1h1.4v7.7h-1.3v-5.2h-0.1L142,51.9z M143,42.7c0.2,0,0.4-0.1,0.6-0.2
		c0.2-0.1,0.3-0.2,0.4-0.3l0.6,0.6c-0.2,0.3-0.4,0.5-0.7,0.6s-0.6,0.2-0.9,0.2s-0.7-0.1-0.9-0.2s-0.5-0.4-0.7-0.6l0.5-0.6
		c0.1,0.1,0.3,0.2,0.4,0.3C142.6,42.6,142.8,42.7,143,42.7z"/>
	<path class="st2" d="M153.6,47.2h0.6c0.9,0,1.6,0.2,2,0.6c0.4,0.4,0.6,1,0.6,1.9c0,0.8-0.2,1.4-0.6,1.8c-0.4,0.4-1.1,0.6-2,0.6
		c-0.4,0-0.8,0-1.1,0s-0.6-0.1-0.9-0.2v-7.6h4.1v0.8h-2.8L153.6,47.2L153.6,47.2z M153.6,48.1v3.1h0.6c0.4,0,0.7-0.1,0.9-0.4
		s0.3-0.6,0.3-1.2s-0.1-1-0.3-1.2s-0.5-0.4-0.9-0.4h-0.6V48.1z"/>
	<path class="st2" d="M160.6,52c-0.2,0-0.4,0-0.6-0.1s-0.4-0.1-0.6-0.2v-0.6h0.8c0.1,0,0.3,0,0.4-0.1c0.1,0,0.2-0.1,0.3-0.2
		s0.2-0.3,0.3-0.5s0.1-0.4,0.2-0.7c-0.4,0-0.8-0.1-1.1-0.4c-0.3-0.2-0.5-0.6-0.6-1l-1.2-4.2h1.3l1.1,4.1c0,0.2,0.1,0.3,0.2,0.4
		c0.1,0.1,0.2,0.1,0.3,0.1l0.9-4.6h1.3l-1.2,5.9C162.3,51.4,161.7,52,160.6,52z"/>
	<path class="st2" d="M165.4,44.2h4.7v0.9h-1.7v6.8h-1.3v-6.8h-1.7V44.2z"/>
	<path class="st2" d="M173.7,51.9h-1.3v-7.7h1.3v5.1h0.1l2-5.1h1.4v7.7h-1.3v-5.2h-0.1L173.7,51.9z"/>
	<path class="st2" d="M182.6,47.9c0.1,0,0.2,0.1,0.3,0.1c0.1,0.1,0.2,0.1,0.3,0.3c0.1,0.1,0.2,0.2,0.3,0.4s0.1,0.3,0.2,0.6l0.3,1.4
		c0,0.2,0.1,0.3,0.3,0.4s0.3,0.2,0.6,0.2v0.6c-0.1,0-0.1,0-0.2,0.1c-0.1,0-0.3,0.1-0.6,0.1c-0.4,0-0.7-0.1-1-0.3
		c-0.2-0.2-0.4-0.5-0.5-1l-0.3-1.4c-0.1-0.4-0.2-0.6-0.3-0.7c-0.1-0.1-0.3-0.2-0.5-0.2h-0.2v3.6H180v-7.7h1.3v3.2h0.2
		c0.1,0,0.3-0.1,0.4-0.2c0.1-0.1,0.2-0.4,0.3-0.7l0.3-1.1c0.1-0.4,0.3-0.8,0.5-1s0.5-0.3,0.9-0.3c0.1,0,0.2,0,0.3,0s0.2,0,0.2,0
		c0.1,0,0.1,0,0.2,0.1V45c-0.2,0-0.4,0.1-0.6,0.2c-0.1,0.1-0.2,0.3-0.3,0.4l-0.3,1.1c-0.1,0.4-0.3,0.8-0.4,1
		C183,47.7,182.8,47.8,182.6,47.9L182.6,47.9z"/>
</g>
</svg>
