<?xml version="1.0" encoding="utf-8"?>
<!-- Generator: Adobe Illustrator 21.0.0, SVG Export Plug-In . SVG Version: 6.00 Build 0)  -->
<svg version="1.1" id="Слой_1" xmlns="http://www.w3.org/2000/svg" xmlns:xlink="http://www.w3.org/1999/xlink" x="0px" y="0px"
	 viewBox="0 0 198 72.3" style="enable-background:new 0 0 198 72.3;" xml:space="preserve">
<style type="text/css">
	.st0{fill:#414042;}
	.st1{fill:#A39178;}
	.st2{fill:#FFFFFF;}
</style>
<path class="st0" d="M4.8,19.8c-1-1.1-1.8-2.3-2.2-3.6C2.2,15,2,13.7,2,12.2C2,8.7,3.1,6,5.4,3.9c2.3-2,6-3,11-3
	c2,0,3.9,0.2,5.8,0.7c1.9,0.5,3.4,1,4.4,1.6c0.4,0.3,0.8,0.5,1,0.7C27.9,4.2,28,4.5,28,4.8v4c0,1-0.5,1.3-1.5,0.9
	c-1.1-0.4-2.6-0.8-4.6-1.2s-3.8-0.6-5.4-0.6c-0.8,0-1.5,0-2.1,0.1c-4.4,0.3-9.3,2.6-9.6,7.7c-0.2,2.6,1.3,4.9,3.3,6.7
	C6.7,21.6,5.6,20.7,4.8,19.8 M59.1,4.1C55.9,2,51.8,0.9,46.6,0.9c-4.5,0-8.4,0.3-11.6,0.8c-0.6,0.1-1.1,0.3-1.4,0.5
	c-0.3,0.3-0.5,0.7-0.5,1.2v41c0,0.3,0.1,0.6,0.4,0.9c0.3,0.2,0.5,0.4,0.8,0.4h6c0.3,0,0.6-0.1,0.8-0.3s0.3-0.5,0.3-0.9v-14
	c0-0.3,0-0.6,0-0.9v-0.1V8c1.6-0.2,3.4-0.3,5.3-0.3c3.1,0,5.3,0.5,6.8,1.6s2.2,2.8,2.2,5.3v0.5c0,1.7-0.3,3-0.9,4
	c-0.6,1-1.6,1.8-2.9,2.3c-0.5,0.2-1.2,0.4-1.9,0.5c-1.7,0.5-5.4,2-6.5,6.5c0,0.2-0.1,0.3-0.1,0.4c0.3,0,0.7,0,1.2,0.1
	c1.1,0.1,1.8,0.1,2.1,0.1c5.1,0,9.2-1.1,12.4-3.3c3.2-2.2,4.7-5.8,4.7-10.7v-0.5C63.8,9.8,62.2,6.3,59.1,4.1z M95.8,26.6
	c1,1.5,1.5,3.4,1.5,5.6v1c0,3-0.7,5.5-2.1,7.4s-3.5,3.3-6.2,4.1S83.1,46,79.2,46c-4.6,0-8.1-0.2-10.3-0.6c-1-0.2-1.8-0.5-2.2-1
	c-0.4-0.5-0.7-1.2-0.7-2.3V9h8.3v11H82c2.6,0,4.4-0.5,5.5-1.6c1.1-1,1.6-2.4,1.6-4.1v-0.8c0-1.4-0.3-2.5-1-3.4
	c-0.6-0.8-1.7-1.4-3.2-1.8c-1.5-0.4-3.4-0.6-5.8-0.6l0,0l0,0c-0.1,0-0.2,0-0.3,0c-0.7,0-2,0-3.8,0.1c-1.8-0.3-3.9-1.2-5.6-3.2
	c-0.7-0.9-1.2-1.9-1.4-2.9c0.2-0.1,0.5-0.1,0.8-0.2c1-0.2,2.4-0.3,4.2-0.4c1.8-0.1,3.7-0.2,5.8-0.2c2.9,0,5.4,0.2,7.6,0.6
	s4.1,1.1,5.7,2s2.8,2.2,3.7,3.8c0.9,1.6,1.3,3.5,1.3,5.6v1.2c0,1.3-0.2,2.6-0.6,3.7c-0.4,1.2-1,2.2-1.9,3.1c-0.8,0.9-1.8,1.6-3,2.1
	C93.4,23.9,94.8,25.1,95.8,26.6z M89.3,32.3c0-1.8-0.6-3.3-1.7-4.5S84.6,26,82,26h-7.6v13.1c0.5,0,1.3,0,2.5,0.1
	c1.2,0,2,0.1,2.3,0.1c3.7,0,6.3-0.5,7.8-1.5s2.2-2.5,2.2-4.7L89.3,32.3L89.3,32.3z M27.2,25.3c-1.2-1.2-2.8-2.5-4.9-3.7l-7.1-4.2
	c-1.9-1.2-3.2-2.1-3.9-2.7c-0.6-0.7-1-1.5-1-2.4c0-1.6,0.7-2.7,1.9-3.4c-1.8,0.8-4.3,2.5-5.2,6c-1.1,4.4,2.1,7.9,5,10.1l4.1,2.5
	l0.7,0.4c2,1.1,3.3,2.1,3.9,2.9c0.7,0.8,1,1.8,1,2.9c0,1.8-0.5,3.2-1.6,4.1c-1.1,0.9-2.9,1.3-5.4,1.3c-3.2,0-6.7-0.6-10.5-1.9
	c-1-0.3-1.5,0-1.5,0.9v4c0,0.4,0.1,0.7,0.3,0.8c0.2,0.2,0.5,0.4,1.1,0.8c0.8,0.5,2.2,1,4.2,1.5c2,0.6,4.3,0.9,6.7,0.9
	c3.6,0,6.6-0.6,8.9-1.8s3.9-2.7,4.9-4.6c1-1.9,1.5-3.9,1.5-6.1c0-1.7-0.2-3.2-0.7-4.5C29.2,27.8,28.4,26.6,27.2,25.3z M14.1,8.2
	c0.1,0,0.2,0,0.3,0C14.4,8.2,14.3,8.2,14.1,8.2z M195.9,44.4l-13.1-20.9l12.5-21c0.1-0.2,0.1-0.3,0.1-0.4c0-0.2-0.1-0.4-0.3-0.6
	s-0.4-0.2-0.7-0.2h-6.5c-0.6,0-1.1,0.4-1.5,1.1l-8,13.9l-8.7-13.9c-0.5-0.8-1.1-1.1-1.6-1.1h-7c-0.3,0-0.5,0.1-0.7,0.2
	c-0.2,0.2-0.3,0.3-0.3,0.5c0,0.1,0,0.2,0.1,0.4l13,20.8l-12.7,21.1c-0.1,0.2-0.1,0.3-0.1,0.4c0,0.5,0.3,0.8,0.9,0.8h6.5
	c0.6,0,1.1-0.4,1.6-1.2l8.2-14l8.7,14c0.5,0.8,1.1,1.2,1.6,1.2h7c0.6,0,1-0.2,1-0.7C196,44.7,196,44.5,195.9,44.4z M157.4,1.4h-5.9
	c-0.4,0-0.6,0.1-0.9,0.3c-0.2,0.2-0.3,0.5-0.3,0.8v26.7c0,2.4-0.2,4.3-0.7,5.7s-1.3,2.5-2.5,3.2s-2.8,1.1-4.9,1.1
	c-2.1,0-3.8-0.4-4.9-1.1c-0.9-0.6-1.6-1.4-2.1-2.4c1.5,3.9,5.1,9.3,14.1,7.7c4.3-0.7,7.2-3.7,8.2-6.3c0.8-2.1,1.2-4.8,1.2-7.9V2.5
	c0-0.4-0.1-0.6-0.3-0.8C158.1,1.5,157.8,1.4,157.4,1.4z M134.1,29.3V2.5c0-0.3-0.1-0.6-0.4-0.8c-0.2-0.2-0.5-0.3-0.8-0.3H127
	c-0.4,0-0.6,0.1-0.9,0.3c-0.2,0.2-0.3,0.5-0.3,0.8v26.7c0,3.1,0.4,5.7,1.2,7.9c0.8,2.2,1.9,3.9,3.3,5.2c1.4,1.3,3.1,2.2,5.1,2.8
	s4.2,0.9,6.7,0.9c1.9,0,3.7-0.2,5.4-0.6C136.1,46.3,134.1,35.8,134.1,29.3z M124.3,39h-10.9c-1.7,0-2.9-0.4-3.6-1.1
	c-0.7-0.7-1-2.1-1-4V2.6c0-0.3-0.1-0.6-0.4-0.8c-0.3-0.3-0.5-0.4-0.8-0.4h-5.9c-0.3,0-0.6,0.1-0.8,0.4c-0.3,0.3-0.4,0.5-0.4,0.8
	v31.3c0,3.2,0.6,5.7,1.8,7.5c1.1,1.8,2.7,3,4.7,3.7s4.4,1,7.2,1c1.4,0,3.2-0.1,5.5-0.3c2.2-0.2,3.8-0.3,4.6-0.6
	c0.5-0.1,0.8-0.2,0.9-0.4c0.2-0.2,0.3-0.5,0.3-0.9v-3.8c0-0.4-0.1-0.7-0.3-0.9C125,39.1,124.7,39,124.3,39z"/>
<rect y="52.1" class="st1" width="198" height="20.2"/>
<g>
	<path class="st2" d="M14.9,64.1c-0.7,0-1.3-0.2-1.6-0.6s-0.6-0.9-0.6-1.7v-2.7h1.3v2.7c0,0.9,0.4,1.4,1.3,1.4H16v-4.1h1.3v7.7H16
		V64c-0.1,0-0.3,0.1-0.5,0.1C15.2,64.1,15.1,64.1,14.9,64.1z"/>
	<path class="st2" d="M21.4,64.9l-0.5,1.9h-1.4l2-7.7h1.6l2,7.7h-1.4l-0.5-1.9H21.4z M22.4,60.9L22.4,60.9L21.6,64h1.5L22.4,60.9z"
		/>
	<path class="st2" d="M29.5,66.9c-0.4,0-0.8-0.1-1.1-0.2c-0.3-0.1-0.6-0.3-0.8-0.6s-0.4-0.7-0.5-1.2c-0.1-0.5-0.2-1.1-0.2-1.9
		c0-0.8,0.1-1.4,0.2-1.9c0.1-0.5,0.3-0.9,0.5-1.2c0.2-0.3,0.5-0.5,0.8-0.6S29,59,29.4,59c0.4,0,0.7,0,1,0.1s0.5,0.1,0.7,0.2v0.6
		h-1.3c-0.2,0-0.4,0-0.6,0.1c-0.2,0.1-0.4,0.3-0.5,0.5c-0.1,0.2-0.3,0.6-0.3,1c-0.1,0.4-0.1,0.9-0.1,1.5c0,0.6,0,1.1,0.1,1.5
		c0.1,0.4,0.2,0.7,0.3,1c0.1,0.2,0.3,0.4,0.5,0.5c0.2,0.1,0.4,0.1,0.7,0.1h1.3v0.6c-0.2,0.1-0.4,0.1-0.7,0.2S29.9,66.9,29.5,66.9z"
		/>
	<path class="st2" d="M35.6,59c0.4,0,0.7,0.1,1,0.2s0.6,0.4,0.8,0.7c0.2,0.3,0.4,0.7,0.5,1.2s0.2,1.1,0.2,1.9c0,0.7-0.1,1.4-0.2,1.9
		c-0.1,0.5-0.3,0.9-0.5,1.2c-0.2,0.3-0.5,0.5-0.8,0.7s-0.7,0.2-1,0.2c-0.4,0-0.7-0.1-1.1-0.2c-0.3-0.1-0.6-0.4-0.8-0.7
		c-0.2-0.3-0.4-0.7-0.5-1.2C33.1,64.3,33,63.7,33,63c0-0.7,0.1-1.4,0.2-1.9s0.3-0.9,0.5-1.2c0.2-0.3,0.5-0.5,0.8-0.7
		C34.8,59.1,35.2,59,35.6,59z M35.6,66.2c0.2,0,0.3,0,0.4-0.1c0.1-0.1,0.3-0.3,0.4-0.5c0.1-0.2,0.2-0.6,0.3-1
		c0.1-0.4,0.1-0.9,0.1-1.6s0-1.2-0.1-1.6c-0.1-0.4-0.2-0.7-0.3-1c-0.1-0.2-0.2-0.4-0.4-0.5c-0.1-0.1-0.3-0.1-0.4-0.1
		c-0.2,0-0.3,0-0.4,0.1c-0.1,0.1-0.3,0.3-0.4,0.5c-0.1,0.2-0.2,0.6-0.3,1c-0.1,0.4-0.1,0.9-0.1,1.6s0,1.2,0.1,1.6
		c0.1,0.4,0.2,0.7,0.3,1c0.1,0.2,0.2,0.4,0.4,0.5C35.3,66.1,35.4,66.2,35.6,66.2z"/>
	<path class="st2" d="M44,62.7c0.4,0.2,0.8,0.4,1,0.7c0.2,0.3,0.4,0.8,0.4,1.3c0,0.7-0.2,1.3-0.6,1.6c-0.4,0.4-1.1,0.6-2.1,0.6
		c-0.4,0-0.8,0-1.1,0s-0.6-0.1-0.9-0.2v-7.5c0.3-0.1,0.6-0.1,0.9-0.2s0.6,0,1.1,0c0.8,0,1.4,0.2,1.8,0.5c0.4,0.4,0.6,0.9,0.6,1.5
		c0,0.3-0.1,0.6-0.3,0.9C44.6,62.3,44.3,62.5,44,62.7L44,62.7z M42.5,62.4c0.4,0,0.6-0.1,0.8-0.3c0.2-0.2,0.3-0.5,0.3-0.9
		s-0.1-0.7-0.3-0.9c-0.2-0.2-0.5-0.3-0.8-0.3H42v2.5H42.5z M42,63.2v2.9h0.6c0.5,0,0.8-0.1,1-0.3s0.3-0.6,0.3-1.1
		c0-0.5-0.1-0.9-0.3-1.1c-0.2-0.2-0.6-0.3-1-0.3H42z"/>
	<path class="st2" d="M50.1,59c0.4,0,0.7,0.1,1,0.2s0.6,0.4,0.8,0.7c0.2,0.3,0.4,0.7,0.5,1.2s0.2,1.1,0.2,1.9c0,0.7-0.1,1.4-0.2,1.9
		c-0.1,0.5-0.3,0.9-0.5,1.2c-0.2,0.3-0.5,0.5-0.8,0.7s-0.7,0.2-1,0.2c-0.4,0-0.7-0.1-1.1-0.2c-0.3-0.1-0.6-0.4-0.8-0.7
		c-0.2-0.3-0.4-0.7-0.5-1.2c-0.1-0.5-0.2-1.1-0.2-1.9c0-0.7,0.1-1.4,0.2-1.9s0.3-0.9,0.5-1.2c0.2-0.3,0.5-0.5,0.8-0.7
		C49.3,59.1,49.7,59,50.1,59z M50.1,66.2c0.2,0,0.3,0,0.4-0.1c0.1-0.1,0.3-0.3,0.4-0.5c0.1-0.2,0.2-0.6,0.3-1
		c0.1-0.4,0.1-0.9,0.1-1.6s0-1.2-0.1-1.6c-0.1-0.4-0.2-0.7-0.3-1c-0.1-0.2-0.2-0.4-0.4-0.5c-0.1-0.1-0.3-0.1-0.4-0.1
		c-0.2,0-0.3,0-0.4,0.1c-0.1,0.1-0.3,0.3-0.4,0.5c-0.1,0.2-0.2,0.6-0.3,1c-0.1,0.4-0.1,0.9-0.1,1.6s0,1.2,0.1,1.6
		c0.1,0.4,0.2,0.7,0.3,1c0.1,0.2,0.2,0.4,0.4,0.5C49.8,66.1,49.9,66.2,50.1,66.2z"/>
	<path class="st2" d="M56.5,66.8h-1.3v-7.7h1.3v5.1h0.1l2-5.1h1.4v7.7h-1.3v-5.2h-0.1L56.5,66.8z M57.6,57.6c0.2,0,0.4-0.1,0.6-0.2
		c0.2-0.1,0.3-0.2,0.4-0.3l0.5,0.6c-0.2,0.3-0.4,0.5-0.7,0.6c-0.3,0.2-0.6,0.2-0.9,0.2s-0.7-0.1-0.9-0.2s-0.5-0.4-0.7-0.6l0.5-0.6
		c0.1,0.1,0.3,0.2,0.4,0.3C57.1,57.5,57.3,57.6,57.6,57.6z"/>
	<path class="st2" d="M68.2,66.8h-1.3v-7.7h1.3v5.1h0.1l2-5.1h1.4v7.7h-1.3v-5.2h-0.1L68.2,66.8z"/>
	<path class="st2" d="M83,59c0.4,0,0.7,0.1,1,0.2c0.3,0.1,0.6,0.4,0.8,0.7c0.2,0.3,0.4,0.7,0.5,1.2s0.2,1.1,0.2,1.9
		c0,0.7-0.1,1.4-0.2,1.9c-0.1,0.5-0.3,0.9-0.5,1.2c-0.2,0.3-0.5,0.5-0.8,0.7c-0.3,0.1-0.6,0.2-1,0.2c-0.4,0-0.7-0.1-1-0.2
		s-0.5-0.3-0.8-0.6c-0.2-0.3-0.4-0.6-0.5-1.1c-0.1-0.5-0.2-1-0.2-1.7h-0.7v3.5h-1.3v-7.7h1.3v3.4h0.7c0-0.6,0.1-1.2,0.2-1.6
		c0.1-0.4,0.3-0.8,0.5-1.1s0.5-0.5,0.8-0.6S82.6,59,83,59z M83,59.8c-0.1,0-0.3,0-0.4,0.1c-0.1,0.1-0.3,0.3-0.4,0.5
		c-0.1,0.2-0.2,0.6-0.3,1c-0.1,0.4-0.1,0.9-0.1,1.6s0,1.2,0.1,1.6c0.1,0.4,0.2,0.7,0.3,1c0.1,0.2,0.2,0.4,0.4,0.5
		c0.1,0.1,0.3,0.1,0.4,0.1c0.1,0,0.3,0,0.4-0.1c0.1-0.1,0.3-0.3,0.4-0.5c0.1-0.2,0.2-0.6,0.3-1c0.1-0.4,0.1-0.9,0.1-1.6
		s0-1.2-0.1-1.6c-0.1-0.4-0.2-0.7-0.3-1c-0.1-0.2-0.2-0.4-0.4-0.5C83.2,59.8,83.1,59.8,83,59.8z"/>
	<path class="st2" d="M91.3,62.7c0.4,0.2,0.8,0.4,1,0.7c0.2,0.3,0.4,0.8,0.4,1.3c0,0.7-0.2,1.3-0.6,1.6c-0.4,0.4-1.1,0.6-2.1,0.6
		c-0.4,0-0.8,0-1.1,0s-0.6-0.1-0.9-0.2v-7.5c0.3-0.1,0.6-0.1,0.9-0.2s0.6,0,1.1,0c0.8,0,1.4,0.2,1.8,0.5c0.4,0.4,0.6,0.9,0.6,1.5
		c0,0.3-0.1,0.6-0.3,0.9C91.9,62.3,91.7,62.5,91.3,62.7L91.3,62.7z M89.8,62.4c0.4,0,0.6-0.1,0.8-0.3c0.2-0.2,0.3-0.5,0.3-0.9
		s-0.1-0.7-0.3-0.9c-0.2-0.2-0.5-0.3-0.8-0.3h-0.5v2.5H89.8z M89.3,63.2v2.9H90c0.5,0,0.8-0.1,1-0.3s0.3-0.6,0.3-1.1
		c0-0.5-0.1-0.9-0.3-1.1c-0.2-0.2-0.6-0.3-1-0.3H89.3z"/>
	<path class="st2" d="M96.5,66h2.7v0.9h-4v-7.7h4V60h-2.7v2.4h2.4v0.9h-2.4V66z"/>
	<path class="st2" d="M101.7,66.9c-0.2,0-0.4,0-0.6-0.1c-0.1,0-0.1,0-0.2-0.1v-0.6c0.1,0,0.3,0,0.4-0.1c0.1-0.1,0.2-0.2,0.3-0.3
		c0.1-0.1,0.2-0.3,0.2-0.5c0.1-0.2,0.1-0.5,0.1-0.8l0.3-5.4h4.1v7.7H105V60h-1.5l-0.2,4.5c0,0.4-0.1,0.8-0.2,1.1
		c-0.1,0.3-0.2,0.6-0.3,0.7c-0.1,0.2-0.3,0.3-0.5,0.4C102.1,66.9,101.9,66.9,101.7,66.9z"/>
	<path class="st2" d="M110.5,66.8h-1.3v-7.7h1.3v5.1h0.1l2-5.1h1.4v7.7h-1.3v-5.2h-0.1L110.5,66.8z"/>
	<path class="st2" d="M118.1,66.8h-1.3v-7.6c0.3-0.1,0.6-0.1,0.9-0.2s0.6,0,1.1,0c0.5,0,0.8,0.1,1.2,0.2c0.3,0.1,0.6,0.3,0.8,0.5
		s0.4,0.5,0.5,0.9c0.1,0.3,0.1,0.8,0.1,1.3c0,0.5,0,1-0.1,1.3c-0.1,0.4-0.2,0.7-0.4,0.9c-0.2,0.2-0.4,0.4-0.7,0.5
		c-0.3,0.1-0.6,0.2-1,0.2c0,0-0.1,0-0.2,0c-0.1,0-0.2,0-0.2,0s-0.2,0-0.3,0s-0.2,0-0.2,0V66.8z M118.7,63.8c0.2,0,0.4,0,0.5-0.1
		c0.2-0.1,0.3-0.2,0.4-0.3s0.2-0.4,0.2-0.6c0.1-0.3,0.1-0.6,0.1-1c0-0.4,0-0.7-0.1-0.9c-0.1-0.2-0.1-0.4-0.2-0.6s-0.2-0.3-0.4-0.3
		c-0.2-0.1-0.3-0.1-0.5-0.1h-0.6v3.9H118.7z"/>
	<path class="st2" d="M128.4,59.1v7.7h-1.3v-3.5h-2v3.5h-1.3v-7.7h1.3v3.4h2v-3.4H128.4z"/>
	<path class="st2" d="M133.5,62.1c0.7,0,1.3,0.2,1.6,0.6c0.4,0.4,0.6,1,0.6,1.9c0,0.8-0.2,1.4-0.6,1.8c-0.4,0.4-1,0.6-1.9,0.6
		c-0.4,0-0.8,0-1.1,0s-0.6-0.1-0.9-0.2v-7.6h1.3v3.1c0.1,0,0.1,0,0.2,0c0.1,0,0.2,0,0.3,0s0.2,0,0.2,0
		C133.4,62.1,133.5,62.1,133.5,62.1z M132.6,63v3.1h0.6c0.4,0,0.7-0.1,0.9-0.4s0.3-0.6,0.3-1.2c0-0.3,0-0.6-0.1-0.8
		c-0.1-0.2-0.1-0.4-0.2-0.5s-0.2-0.2-0.4-0.3c-0.2-0.1-0.3-0.1-0.5-0.1H132.6z M137.8,59.1v7.7h-1.3v-7.7H137.8z"/>
	<path class="st2" d="M142,66.8h-1.3v-7.7h1.3v5.1h0.1l2-5.1h1.4v7.7h-1.3v-5.2h-0.1L142,66.8z M143,57.6c0.2,0,0.4-0.1,0.6-0.2
		c0.2-0.1,0.3-0.2,0.4-0.3l0.6,0.6c-0.2,0.3-0.4,0.5-0.7,0.6s-0.6,0.2-0.9,0.2s-0.7-0.1-0.9-0.2s-0.5-0.4-0.7-0.6l0.5-0.6
		c0.1,0.1,0.3,0.2,0.4,0.3C142.6,57.5,142.8,57.6,143,57.6z"/>
	<path class="st2" d="M153.6,62.1h0.6c0.9,0,1.6,0.2,2,0.6c0.4,0.4,0.6,1,0.6,1.9c0,0.8-0.2,1.4-0.6,1.8c-0.4,0.4-1.1,0.6-2,0.6
		c-0.4,0-0.8,0-1.1,0s-0.6-0.1-0.9-0.2v-7.6h4.1V60h-2.8V62.1z M153.6,63v3.1h0.6c0.4,0,0.7-0.1,0.9-0.4s0.3-0.6,0.3-1.2
		c0-0.6-0.1-1-0.3-1.2c-0.2-0.2-0.5-0.4-0.9-0.4H153.6z"/>
	<path class="st2" d="M160.6,66.9c-0.2,0-0.4,0-0.6-0.1s-0.4-0.1-0.6-0.2v-0.6h0.8c0.1,0,0.3,0,0.4-0.1c0.1,0,0.2-0.1,0.3-0.2
		c0.1-0.1,0.2-0.3,0.3-0.5s0.1-0.4,0.2-0.7c-0.4,0-0.8-0.1-1.1-0.4c-0.3-0.2-0.5-0.6-0.6-1l-1.2-4.2h1.3l1.1,4.1
		c0,0.2,0.1,0.3,0.2,0.4c0.1,0.1,0.2,0.1,0.3,0.1l0.9-4.6h1.3l-1.2,5.9C162.3,66.3,161.7,66.9,160.6,66.9z"/>
	<path class="st2" d="M165.4,59.1h4.7V60h-1.7v6.8h-1.3V60h-1.7V59.1z"/>
	<path class="st2" d="M173.7,66.8h-1.3v-7.7h1.3v5.1h0.1l2-5.1h1.4v7.7h-1.3v-5.2h-0.1L173.7,66.8z"/>
	<path class="st2" d="M182.6,62.8c0.1,0,0.2,0.1,0.3,0.1c0.1,0.1,0.2,0.1,0.3,0.3c0.1,0.1,0.2,0.2,0.3,0.4s0.1,0.3,0.2,0.6l0.3,1.4
		c0,0.2,0.1,0.3,0.3,0.4s0.3,0.2,0.6,0.2v0.6c-0.1,0-0.1,0-0.2,0.1c-0.1,0-0.3,0.1-0.6,0.1c-0.4,0-0.7-0.1-1-0.3
		c-0.2-0.2-0.4-0.5-0.5-1l-0.3-1.4c-0.1-0.4-0.2-0.6-0.3-0.7c-0.1-0.1-0.3-0.2-0.5-0.2h-0.2v3.6h-1.3v-7.7h1.3v3.2h0.2
		c0.1,0,0.3-0.1,0.4-0.2c0.1-0.1,0.2-0.4,0.3-0.7l0.3-1.1c0.1-0.4,0.3-0.8,0.5-1c0.2-0.2,0.5-0.3,0.9-0.3c0.1,0,0.2,0,0.3,0
		c0.1,0,0.2,0,0.2,0c0.1,0,0.1,0,0.2,0.1v0.6c-0.2,0-0.4,0.1-0.6,0.2c-0.1,0.1-0.2,0.3-0.3,0.4l-0.3,1.1c-0.1,0.4-0.3,0.8-0.4,1
		C183,62.6,182.8,62.7,182.6,62.8L182.6,62.8z"/>
</g>
</svg>
